<svg id="Layer_1" data-name="Layer 1" xmlns="http://www.w3.org/2000/svg" viewBox="0 0 60 60"><defs><style>.cls-1{fill:white;}</style></defs><path class="cls-1" d="M42.1,19.91l-1.85,1.86a4.85,4.85,0,0,1,.85.66,4.65,4.65,0,0,1,1.35,3.28,4.6,4.6,0,0,1-2,3.79,4.59,4.59,0,0,1-5,.21,4.75,4.75,0,0,1-1.59-1.56L32,30l3.63,3.63a1.43,1.43,0,0,1-1,2.44h-.36a1.77,1.77,0,0,0-1.26.51,1.51,1.51,0,0,0-.22.28l0,.08a1.23,1.23,0,0,0-.1.2l0,.07a2.17,2.17,0,0,0-.07.24v0l0,.05c0,.09,0,.17,0,.24a.44.44,0,0,1,0,.13,1.75,1.75,0,0,0,.1.56l0,0v0a1.26,1.26,0,0,0,.13.23v0l0,.07a1.87,1.87,0,0,0,.49.48,1.79,1.79,0,0,0,1,.29,1.89,1.89,0,0,0,.53-.08,1.79,1.79,0,0,0,1.23-1.91,1.41,1.41,0,0,1,.8-1.44,1.29,1.29,0,0,1,.38-.12h.2l.16,0a1,1,0,0,1,.31.06l.14.05a1.3,1.3,0,0,1,.43.29l3.63,3.63c1.86-1.89,8.88-9,9.5-9.7a.58.58,0,0,0,0-.78C51,28.92,44,21.8,42.1,19.91Z"/><path class="cls-1" d="M37.83,23.94h-.36a1.44,1.44,0,0,1-1.29-.81,1.4,1.4,0,0,1,.28-1.62l3.63-3.64C38.2,16,31.09,9,30.39,8.4a.58.58,0,0,0-.78,0c-.7.63-7.81,7.64-9.7,9.49l1.86,1.86a4.54,4.54,0,0,1,3.91-2.19,4.68,4.68,0,0,1,3.57,1.62l.05.07.07.08.18.24.06.07,0,.07a4.62,4.62,0,0,1,0,5h0v0l0,0h0a3.39,3.39,0,0,1-.21.28l-.05.07c-.1.11-.2.23-.31.34a4.56,4.56,0,0,1-.85.67L30,28l3.63-3.63a1.42,1.42,0,0,1,1-.42,1.42,1.42,0,0,1,1.42,1.58,1.77,1.77,0,0,0,1.09,1.86,1.9,1.9,0,0,0,.67.13,1.74,1.74,0,0,0,1-.28,1.8,1.8,0,0,0,.82-1.51,1.77,1.77,0,0,0-.52-1.26A1.75,1.75,0,0,0,37.83,23.94Z"/><path class="cls-1" d="M28,30l-3.63-3.63a1.43,1.43,0,0,1,1-2.44h.37A1.72,1.72,0,0,0,27,23.44a1.23,1.23,0,0,0,.23-.28l0,0,0,0a1.28,1.28,0,0,0,.11-.2s0,0,0-.05a2.9,2.9,0,0,0,.09-.28v0a2.51,2.51,0,0,0,0-.27h0v-.12a1.81,1.81,0,0,0-.1-.56l0,0v0a1.19,1.19,0,0,0-.12-.22v0l0-.06a1.73,1.73,0,0,0-.35-.38,1.82,1.82,0,0,0-1.12-.4,2,2,0,0,0-.48.07A1.75,1.75,0,0,0,24,22a2.8,2.8,0,0,0,0,.41,1.41,1.41,0,0,1-.8,1.44,1.42,1.42,0,0,1-1.62-.28L17.9,19.91C16,21.8,9,28.92,8.4,29.61a.58.58,0,0,0,0,.78c.62.69,7.64,7.81,9.5,9.7l1.85-1.86a4.5,4.5,0,0,1-.78-.6h0l-.06,0a4.61,4.61,0,0,1-1.33-2.82,3.44,3.44,0,0,1,0-.46,4.66,4.66,0,0,1,2.37-4.05,4.58,4.58,0,0,1,2.27-.6,4.47,4.47,0,0,1,1.91.42,4.7,4.7,0,0,1,2,1.8Z"/><path class="cls-1" d="M38.23,40.25a4.59,4.59,0,0,1-2.76,2,4.67,4.67,0,0,1-4.78-1.55v0l0,0-.22-.3,0,0,0,0a4.6,4.6,0,0,1,0-5h0l0,0h0l0-.07h0l.15-.2.05-.06a4.27,4.27,0,0,1,.33-.37,4.56,4.56,0,0,1,.85-.67L30,32l-3.63,3.63a1.42,1.42,0,0,1-1,.42,1.44,1.44,0,0,1-.62-.14,1.43,1.43,0,0,1-.8-1.44,1.78,1.78,0,1,0-3.54-.2,1.77,1.77,0,0,0,.52,1.26,1.75,1.75,0,0,0,1.25.51h.36a1.44,1.44,0,0,1,1.29.81,1.42,1.42,0,0,1-.28,1.62l-3.63,3.64c1.89,1.85,9,8.86,9.7,9.49a.58.58,0,0,0,.78,0c.7-.63,7.81-7.64,9.7-9.49Z"/></svg>