<svg id="Layer_1" data-name="Layer 1" xmlns="http://www.w3.org/2000/svg" viewBox="0 0 60 60"><defs><style>.cls-1{fill:#012b45;}</style></defs><path class="cls-1" d="M53.21,49.74,30.79,9.64a.91.91,0,0,0-1.58,0L6.79,49.74a.72.72,0,0,0,.63,1.08H52.58A.73.73,0,0,0,53.21,49.74Zm-20.7-3.56a1.09,1.09,0,0,1-1.09,1.1H28.58a1.09,1.09,0,0,1-1.09-1.1V43.35a1.09,1.09,0,0,1,1.09-1.1h2.84a1.09,1.09,0,0,1,1.09,1.1Zm0-7.94a1.09,1.09,0,0,1-1.09,1.09H28.58a1.09,1.09,0,0,1-1.09-1.09V24.12A1.09,1.09,0,0,1,28.58,23h2.84a1.09,1.09,0,0,1,1.09,1.09Z"/></svg>