<svg id="Layer_1" data-name="Layer 1" xmlns="http://www.w3.org/2000/svg" viewBox="0 0 60 60"><defs><style>.cls-1{fill:#152951;}</style></defs><path class="cls-1" d="M19.46,11.4v6.42A1.33,1.33,0,0,1,18.65,19a1.25,1.25,0,0,1-.51.1h-.88a1.3,1.3,0,0,1-.52-.1,1.32,1.32,0,0,1-.8-1.21V11.4a1.24,1.24,0,0,1,0-.27,1.29,1.29,0,0,1,.19-.47,1.54,1.54,0,0,1,.17-.19,1.28,1.28,0,0,1,.93-.39h.88a1.13,1.13,0,0,1,.32.05,1.24,1.24,0,0,1,.61.34,1.46,1.46,0,0,1,.16.19,1.52,1.52,0,0,1,.2.47A1.24,1.24,0,0,1,19.46,11.4ZM44,11.13a1.32,1.32,0,0,0-1-1,1.27,1.27,0,0,0-.34-.05h-.88a1.09,1.09,0,0,0-.26,0,1.29,1.29,0,0,0-.67.36,1.46,1.46,0,0,0-.16.19,1.52,1.52,0,0,0-.2.47,1.23,1.23,0,0,0,0,.27v6.42a1.31,1.31,0,0,0,1.31,1.31h.88a1.32,1.32,0,0,0,.74-.22l.19-.16a1.29,1.29,0,0,0,.36-.67,1.09,1.09,0,0,0,0-.26V11.4A1.24,1.24,0,0,0,44,11.13Zm7.06,4.8V48.6a1.32,1.32,0,0,1-1.32,1.32H10.23A1.32,1.32,0,0,1,8.91,48.6V15.93a1.32,1.32,0,0,1,1.32-1.32h3.83v3.21a3.2,3.2,0,0,0,3.2,3.2h.88a3.21,3.21,0,0,0,3.2-3.2V14.61H38.66v3.21a3.21,3.21,0,0,0,3.2,3.2h.88a3.2,3.2,0,0,0,3.2-3.2V14.61h3.83A1.32,1.32,0,0,1,51.09,15.93Zm-2.64,7.79H11.59V45.88a1.32,1.32,0,0,0,1.32,1.32H47.14a1.32,1.32,0,0,0,1.31-1.32ZM39.67,38.17H34.39V32.74h5.28Zm0,7.25H34.39V40h5.28Zm0-14.49H34.39V25.5h5.28Zm7,7.24H41.42V32.74H46.7ZM32.64,30.93H27.36V25.5h5.28Zm14.06,0H41.42V25.5H46.7ZM32.64,38.17H27.36V32.74h5.28Zm-7,7.25H20.33V40h5.28Zm-7,0H13.3V40h5.28Zm0-7.25H13.3V32.74h5.28Zm14.06,7.25H27.36V40h5.28Zm-7-7.25H20.33V32.74h5.28Zm0-7.24H20.33V25.5h5.28Zm-7,0H13.3V25.5h5.28ZM46.7,45.42H41.42V40H46.7Z"/></svg>