<svg id="Layer_1" data-name="Layer 1" xmlns="http://www.w3.org/2000/svg" viewBox="0 0 60 60"><defs><style>.cls-1{fill:white;fill-rule:evenodd;}</style></defs><path class="cls-1" d="M50.27,11.33H9.73a1.36,1.36,0,0,0-1.35,1.35V47.32a1.36,1.36,0,0,0,1.35,1.35H50.27a1.36,1.36,0,0,0,1.35-1.35V12.68A1.36,1.36,0,0,0,50.27,11.33ZM47.76,46H12.24a1.34,1.34,0,0,1-1.35-1.35V21.35A1.35,1.35,0,0,1,12.24,20H47.76a1.35,1.35,0,0,1,1.35,1.35v23.3A1.34,1.34,0,0,1,47.76,46ZM22.94,24.09H15.48v7.26h7.46Zm10.79,0H26.27v7.26h7.46Zm10.79,0H37.06v7.26h7.46ZM22.94,34.66H15.48v7.25h7.46Zm10.79,0H26.27v7.25h7.46Zm10.79,0H37.06v7.25h7.46Z"/></svg>