<svg id="Layer_1" data-name="Layer 1" xmlns="http://www.w3.org/2000/svg" viewBox="0 0 60 60"><defs><style>.cls-1{fill:#012b45;}</style></defs><path class="cls-1" d="M45.13,13H37.82v-2.5A1.62,1.62,0,0,0,36.2,8.85H23.8a1.62,1.62,0,0,0-1.62,1.63V13H14.87a1.62,1.62,0,0,0-1.61,1.82l.48,3.95H46.26l.48-3.95A1.62,1.62,0,0,0,45.13,13ZM34,13H26V11.16h8Z"/><path class="cls-1" d="M14.12,21.92l3.38,27.8a1.62,1.62,0,0,0,1.61,1.43H40.89a1.62,1.62,0,0,0,1.61-1.43l3.38-27.8Zm9.39,24.94-1.3.13c-.32,0-.61-.36-.66-.87L19.84,27.3c-.05-.51.18-.95.5-1l1.29-.12c.32,0,.62.36.67.86L24,45.89C24.05,46.4,23.83,46.83,23.51,46.86Zm7.17.12H29.37c-.32,0-.58-.41-.58-.92l-.05-18.9c0-.51.26-.93.58-.93h1.31c.32,0,.58.41.58.92l.05,18.9C31.26,46.56,31,47,30.68,47Zm7.77-.86c-.05.51-.34.9-.66.87l-1.3-.13c-.32,0-.54-.46-.5-1L37.7,27.06c0-.5.35-.89.67-.86l1.29.12c.32,0,.55.47.5,1Z"/></svg>