<svg id="Layer_1" data-name="Layer 1" xmlns="http://www.w3.org/2000/svg" viewBox="0 0 60 60"><defs><style>.cls-1{fill:#012b45;}</style></defs><path class="cls-1" d="M47,25.32v22H13v-34H35l3-3H11.4A1.4,1.4,0,0,0,10,11.7V48.89a1.4,1.4,0,0,0,1.4,1.4H48.6a1.4,1.4,0,0,0,1.4-1.4V22.32Z"/><path class="cls-1" d="M38.56,15.05a.51.51,0,0,0-.72.11q-7.74,7.77-15.5,15.51l-.28.3a21.28,21.28,0,0,1,7.27,7.22l16.08-16.1A15.27,15.27,0,0,0,38.56,15.05Z"/><path class="cls-1" d="M49.88,17.66a.49.49,0,0,0,.11-.38,21,21,0,0,0-.32-2.23,5.32,5.32,0,0,0-2.19-3.52,9.35,9.35,0,0,0-4.59-1.25.42.42,0,0,0-.26.1l-2.42,2.4A21.34,21.34,0,0,1,47.53,20C48.34,19.21,49.12,18.45,49.88,17.66Z"/><path class="cls-1" d="M19.61,41.19c2,0,3.92,0,5.88,0A1.66,1.66,0,0,0,27,40.5a.47.47,0,0,0,.07-.42,14.91,14.91,0,0,0-6.9-6.91.43.43,0,0,0-.37,0,1.71,1.71,0,0,0-.76,1.49c.07,1.38,0,2.78,0,4.17v2.35Z"/></svg>