<svg id="Layer_1" data-name="Layer 1" xmlns="http://www.w3.org/2000/svg" viewBox="0 0 60 60"><defs><style>.cls-1{fill:#012b45;}</style></defs><path class="cls-1" d="M47.41,48.81H46.12V9.9a1.4,1.4,0,0,0-1.39-1.4H15.28a1.4,1.4,0,0,0-1.4,1.4V48.81H12.59a1.4,1.4,0,0,0-1.4,1.4V51.5H48.81V50.21A1.4,1.4,0,0,0,47.41,48.81ZM21.94,13.88h5.37v5.37H21.94Zm0,8.06h5.37v5.37H21.94Zm0,8.06h5.37v5.38H21.94ZM32.69,48.81H27.31V42.15a1.4,1.4,0,0,1,1.4-1.4h2.58a1.4,1.4,0,0,1,1.4,1.4Zm5.37-13.43H32.69V30h5.37Zm0-8.07H32.69V21.94h5.37Zm0-8.06H32.69V13.88h5.37Z"/></svg>