<svg id="Layer_1" data-name="Layer 1" xmlns="http://www.w3.org/2000/svg" viewBox="0 0 60 60"><defs><style>.cls-1{fill:white;fill-rule:evenodd;}</style></defs><path class="cls-1" d="M16.05,20.18a4.33,4.33,0,1,1,4.31-4.32A4.31,4.31,0,0,1,16.05,20.18Zm27.9,0a4.33,4.33,0,1,1,4.31-4.32A4.31,4.31,0,0,1,44,20.18ZM33.12,16.9H26.87c-3.92.27-6,2.24-6,7.08l0,9.39a2.89,2.89,0,0,0,.19,1.06,2.61,2.61,0,0,0,.58.86,3.21,3.21,0,0,0,2.27.79V50.37a3.07,3.07,0,0,0,1.33,2.53,3.13,3.13,0,0,0,1.08.45,3.08,3.08,0,0,0,.61.06,3,3,0,0,0,3-3,3,3,0,1,0,6.05,0l0-14.29c2,0,3-1.2,3-2.71l0-9.39C39.14,19.14,37.06,17.17,33.12,16.9ZM17.66,33.38l0-9.4a14,14,0,0,1,.49-3.8H13.43c-3.3.22-5,1.88-5,5.94L8.4,34A2.27,2.27,0,0,0,11,36.27v12a2.54,2.54,0,1,0,5.08,0,2.54,2.54,0,0,0,4.67,1.39V38.54A5.7,5.7,0,0,1,17.66,33.38Zm28.91-13.2H41.88a14,14,0,0,1,.49,3.8l0,9.39a5.69,5.69,0,0,1-3.06,5.17l0,11.11a2.53,2.53,0,0,0,4.67-1.38,2.54,2.54,0,1,0,5.08,0l0-12A2.26,2.26,0,0,0,51.6,34l0-7.88C51.62,22.06,49.87,20.4,46.57,20.18ZM30,16.9a5.16,5.16,0,1,1,5.14-5.16A5.14,5.14,0,0,1,30,16.9Z"/></svg>