<svg id="Layer_1" data-name="Layer 1" xmlns="http://www.w3.org/2000/svg" viewBox="0 0 60 60"><defs><style>.cls-1{fill:#012b45;fill-rule:evenodd;}</style></defs><path class="cls-1" d="M47.88,30.6H33.28v3.1h14.6V30.6ZM33.28,44.88h14.6v-3.1H33.28v3.1Zm4.63-29v3.51H50.74V47.51H9.26V19.35H22.09V15.84h-15a1.4,1.4,0,0,0-1.4,1.4V49.62A1.4,1.4,0,0,0,7.07,51H52.93a1.4,1.4,0,0,0,1.4-1.4V17.24a1.4,1.4,0,0,0-1.4-1.4Zm10,20.35H33.28v3.1h14.6v-3.1ZM30,18.48a2.59,2.59,0,1,1-2.64,2.6A2.62,2.62,0,0,1,30,18.48Zm-2.85,7.73h5.7a2.81,2.81,0,0,0,2.84-2.78V11.75A2.8,2.8,0,0,0,32.85,9h-5.7a2.8,2.8,0,0,0-2.84,2.77V23.43a2.81,2.81,0,0,0,2.84,2.78ZM30,45.08H11.83a.54.54,0,0,1-.54-.54h0a5.25,5.25,0,0,1,5.08-5.25l3.3-.13a5.6,5.6,0,1,1,7-5.45,5.61,5.61,0,0,1-4.47,5.45l3.28.12a5.26,5.26,0,0,1,5.09,5.26h0A.54.54,0,0,1,30,45.08Z"/></svg>