<svg id="Layer_1" data-name="Layer 1" xmlns="http://www.w3.org/2000/svg" viewBox="0 0 60 60"><defs><style>.cls-1{fill:#012b45;fill-rule:evenodd;}</style></defs><path class="cls-1" d="M56.64,25.87,48.22,14.45a1.29,1.29,0,0,0-1.7-.34l-7.71,4.57a51.51,51.51,0,0,0-7-2q-.3,0-.69,0a37.28,37.28,0,0,0-6.22.86,25.47,25.47,0,0,0-2.53-.82,57,57,0,0,1-8.5-3.21,1.3,1.3,0,0,0-1.52.33l-9,10.42a1.3,1.3,0,0,0,0,1.73c1,1.11,2.92,3.1,4.28,4.65L9.09,32.2c-1,1.46-1.73,3.36-.37,5a4,4,0,0,0,2.57,1.51,3.24,3.24,0,0,0,1.38,2.1,3.79,3.79,0,0,0,2.27.82,3.21,3.21,0,0,0,.58,0l.06.11a5,5,0,0,0,1.79,2.11,3.26,3.26,0,0,0,1.79.54,4,4,0,0,0,.61,0,2.8,2.8,0,0,0,2.27,2,5.16,5.16,0,0,0,1,.1,3.1,3.1,0,0,0,2-.68c.2.09,2.14.64,3,.85a2,2,0,0,0,1.26-.15C32.5,45,43.13,39.34,46.91,36a1.89,1.89,0,0,0,.48-2.45l8.92-5.83A1.29,1.29,0,0,0,56.64,25.87ZM44.77,35.2l-1,1a.92.92,0,0,1-1.27,0L38.6,32.66a.91.91,0,0,0-1.31.06l-.57.63a.92.92,0,0,0,.07,1.3l3,2.74a.93.93,0,0,1-.17,1.49l-.81.45a.92.92,0,0,1-1.07-.13l-4.14-3.79a.93.93,0,0,0-1.28,0l-.58.59a.93.93,0,0,0,0,1.34l3,2.67a.93.93,0,0,1-.22,1.51l-.78.38a.9.9,0,0,1-1-.16l-4.14-3.88a.92.92,0,0,0-1.3,0l-.56.6a.92.92,0,0,0,0,1.3l2.75,2.54a.93.93,0,0,1-.29,1.54l-.76.3a.91.91,0,0,1-.79-.06l-1.3-.72.53-.64A1.3,1.3,0,0,0,26.78,41l-2.11-1.73a2.68,2.68,0,0,0-.44-.36h0l-.5-.42a1.29,1.29,0,0,0-.9-.28L23,38a1.3,1.3,0,0,0-.18-1.82l-1.31-1.07L21.46,35h0c-.1-.09-.2-.16-.29-.23l-.58-.47a1.23,1.23,0,0,0-.91-.28l.11-.14A1.29,1.29,0,0,0,19.59,32l-2.23-1.83a1.3,1.3,0,0,0-1.82.18l-.25.3a1.26,1.26,0,0,0-.44-.8l-.4-.33a2.6,2.6,0,0,0-.36-.3h0l-.55-.45a1.29,1.29,0,0,0-1.81.18l-.61.73c-.13.13-.25.27-.37.4l-1-1.17C8.1,27.09,7,25.81,6.25,25l7.45-8.67a54.25,54.25,0,0,0,7.24,2.71,1.29,1.29,0,0,0-.55,1.52l1.44,4.16a1.28,1.28,0,0,0,1.64.79L27.79,24v0a16,16,0,0,0,2.07-.68,1,1,0,0,1,.39-.05,4,4,0,0,1,.92.13c1.88,1,3.27,1.87,3.55,2,2.1,1.67,5.86,4.47,8.7,7.18l1.34,1.27A.92.92,0,0,1,44.77,35.2Z"/></svg>