<svg id="Layer_1" data-name="Layer 1" xmlns="http://www.w3.org/2000/svg" viewBox="0 0 60 60"><defs><style>.cls-1{fill:#012b45;}</style></defs><path class="cls-1" d="M17.7,36.2h1a5.09,5.09,0,0,0,.69-.05,1.55,1.55,0,0,0,.58-.21,1.16,1.16,0,0,0,.4-.42,1.55,1.55,0,0,0,.15-.73,1.51,1.51,0,0,0-.15-.72,1.19,1.19,0,0,0-.4-.43,1.54,1.54,0,0,0-.58-.2,3.87,3.87,0,0,0-.69,0h-1.6V36.2h.63Z"/><path class="cls-1" d="M30,36.55a5.42,5.42,0,0,0-.13-1.26,2.55,2.55,0,0,0-.46-.95,2,2,0,0,0-.83-.61,3.48,3.48,0,0,0-1.29-.21H25.84v5.77h1.84a2.83,2.83,0,0,0,.87-.14,1.86,1.86,0,0,0,.75-.47,2.47,2.47,0,0,0,.53-.85A3.71,3.71,0,0,0,30,36.55Z"/><path class="cls-1" d="M38.28,7.37a1.51,1.51,0,0,0-1.1-.48H15.53a1.18,1.18,0,0,0-1.18,1.19V27.36h-3a1.19,1.19,0,0,0-1.19,1.19V44.18a1.19,1.19,0,0,0,1.19,1.19h3v6.55a1.18,1.18,0,0,0,1.18,1.19H48.64a1.19,1.19,0,0,0,1.19-1.19V20.78a2.3,2.3,0,0,0-.62-1.57ZM17.07,41.17H15V31.78h4.24a3.91,3.91,0,0,1,1.5.26,2.68,2.68,0,0,1,1.57,1.64,3.58,3.58,0,0,1,.18,1.11,3.5,3.5,0,0,1-.18,1.12,2.61,2.61,0,0,1-.57,1,2.72,2.72,0,0,1-1,.68,3.91,3.91,0,0,1-1.5.26H17.07ZM46.84,24.75V50.12H17.34V45.37h26.5A1.19,1.19,0,0,0,45,44.18V28.55a1.19,1.19,0,0,0-1.19-1.19H17.34V9.88H36.7v9.89A1.19,1.19,0,0,0,37.89,21h9ZM23.78,41.17V31.78h4a4.92,4.92,0,0,1,1.69.29,3.57,3.57,0,0,1,1.35.87,4.06,4.06,0,0,1,.9,1.45,5.88,5.88,0,0,1,.32,2,6.37,6.37,0,0,1-.27,1.9,4.14,4.14,0,0,1-.79,1.5,3.77,3.77,0,0,1-1.33,1,4.49,4.49,0,0,1-1.87.36Zm15.74-5.48v1.6H35.59v3.88H33.52V31.78h6.6v1.74H35.59v2.17Z"/></svg>