<svg id="Layer_1" data-name="Layer 1" xmlns="http://www.w3.org/2000/svg" viewBox="0 0 60 60"><defs><style>.cls-1{fill:#012b45;}</style></defs><path class="cls-1" d="M28.48,12.2A26.86,26.86,0,0,0,4.32,47a1.25,1.25,0,0,0,1.2.87h49A1.27,1.27,0,0,0,55.69,47,26.9,26.9,0,0,0,28.48,12.2ZM52.09,43.44H7.91a23.21,23.21,0,0,1-.42-4.37,22.51,22.51,0,0,1,45,0A23.21,23.21,0,0,1,52.09,43.44ZM30.77,29.83H29.25a1.4,1.4,0,0,1-1.4-1.4V22.16a1.4,1.4,0,0,1,1.4-1.4h1.52a1.4,1.4,0,0,1,1.4,1.4v6.27A1.4,1.4,0,0,1,30.77,29.83ZM30,41a2.6,2.6,0,1,1,2.55-2.6A2.57,2.57,0,0,1,30,41Zm8.68-5.13-.92-1.21a1.39,1.39,0,0,1,.27-2L43,29a1.4,1.4,0,0,1,2,.28l.92,1.21a1.4,1.4,0,0,1-.27,2l-5,3.78A1.39,1.39,0,0,1,38.69,35.91Zm-19.33.27-5-3.78a1.4,1.4,0,0,1-.28-2L15,29.23A1.4,1.4,0,0,1,17,29l5,3.79a1.39,1.39,0,0,1,.27,2l-.91,1.21A1.4,1.4,0,0,1,19.36,36.18Z"/></svg>