<svg id="Layer_1" data-name="Layer 1" xmlns="http://www.w3.org/2000/svg" viewBox="0 0 60 60"><defs><style>.cls-1{fill:#012b45;}</style></defs><path class="cls-1" d="M51.66,29.31c0-.17,0-.32,0-.49,0-.37-.07-.73-.12-1.1s-.07-.57-.12-.85-.15-.8-.24-1.2c0-.18-.08-.37-.13-.56-.12-.49-.27-1-.43-1.44,0-.16-.1-.32-.16-.47-.18-.5-.37-1-.58-1.46l-.17-.36q-.34-.75-.75-1.47c0-.08-.09-.16-.14-.24-.29-.5-.6-1-.93-1.48a.61.61,0,0,1-.07-.1A21.73,21.73,0,0,0,31.18,8.82v0H28.72v0a21.65,21.65,0,0,0-13.09,5.36h0c-.49.43-1,.88-1.41,1.36l-.06.06c-.44.46-.85.94-1.24,1.43l-.11.14c-.37.47-.72,1-1.05,1.46l-.15.24c-.31.48-.59,1-.86,1.48l-.18.35c-.25.48-.47,1-.68,1.46-.07.16-.13.32-.19.48-.18.47-.36,1-.51,1.44-.06.2-.11.4-.17.6-.11.4-.21.81-.3,1.22s-.12.59-.17.89-.12.7-.16,1.06-.08.73-.11,1.09,0,.67,0,1,0,.39,0,.59A21.77,21.77,0,0,0,30,52.29c.7,0,1.4,0,2.09-.1h.07q1-.1,2-.3h.08c.66-.13,1.31-.3,1.94-.48l.08,0c.64-.19,1.26-.41,1.88-.66l.06,0c.61-.25,1.22-.54,1.8-.84l0,0a18.43,18.43,0,0,0,1.72-1h0c.55-.36,1.1-.75,1.62-1.16l0,0q.78-.61,1.5-1.29l0,0c.47-.45.93-.92,1.36-1.41l0-.06c.42-.48.82-1,1.19-1.49l.09-.12q.54-.75,1-1.56l.11-.18q.45-.78.84-1.59l.12-.28c.24-.52.47-1.05.67-1.59l.12-.37c.16-.47.31-1,.44-1.44.06-.2.11-.41.16-.61.1-.44.19-.87.27-1.32l.12-.79c.05-.41.1-.83.13-1.26,0-.15,0-.3,0-.45h0V29.31Zm-20.48,0V11.84A18.76,18.76,0,0,1,48.63,29.31Z"/></svg>