<svg id="Layer_1" data-name="Layer 1" xmlns="http://www.w3.org/2000/svg" viewBox="0 0 60 60"><defs><style>.cls-1{fill:#012b45;}</style></defs><path class="cls-1" d="M19.47,9.87H36.92V23.09H19.47ZM28.7,32.69a4.25,4.25,0,1,0,4.24,4.25A4.25,4.25,0,0,0,28.7,32.69ZM49.94,16V48.87a1.26,1.26,0,0,1-1.25,1.26H11.2a1.26,1.26,0,0,1-1.26-1.26V11.13A1.26,1.26,0,0,1,11.2,9.87h5.27v15a1.24,1.24,0,0,0,1.25,1.25h21a1.25,1.25,0,0,0,1.25-1.25v-15h4.25a1.28,1.28,0,0,1,.92.4l4.52,4.86A1.29,1.29,0,0,1,49.94,16Zm-14,21a7.25,7.25,0,1,0-7.24,7.24A7.25,7.25,0,0,0,35.94,36.94Z"/></svg>