<svg id="Layer_1" data-name="Layer 1" xmlns="http://www.w3.org/2000/svg" viewBox="0 0 60 60"><defs><style>.cls-1,.cls-2{fill:white;}.cls-2{fill-rule:evenodd;}</style></defs><path class="cls-1" d="M19.46,11.4v6.42A1.33,1.33,0,0,1,18.65,19a1.25,1.25,0,0,1-.51.1h-.88a1.3,1.3,0,0,1-.52-.1,1.32,1.32,0,0,1-.8-1.21V11.4a1.24,1.24,0,0,1,0-.27,1.29,1.29,0,0,1,.19-.47,1.54,1.54,0,0,1,.17-.19,1.28,1.28,0,0,1,.93-.39h.88a1.13,1.13,0,0,1,.32.05,1.24,1.24,0,0,1,.61.34,1.46,1.46,0,0,1,.16.19,1.52,1.52,0,0,1,.2.47A1.24,1.24,0,0,1,19.46,11.4ZM44,11.13a1.32,1.32,0,0,0-1-1,1.27,1.27,0,0,0-.34-.05h-.88a1.09,1.09,0,0,0-.26,0,1.29,1.29,0,0,0-.67.36,1.46,1.46,0,0,0-.16.19,1.52,1.52,0,0,0-.2.47,1.23,1.23,0,0,0,0,.27v6.42a1.31,1.31,0,0,0,1.31,1.31h.88a1.32,1.32,0,0,0,.74-.22l.19-.16a1.29,1.29,0,0,0,.36-.67,1.09,1.09,0,0,0,0-.26V11.4A1.24,1.24,0,0,0,44,11.13Zm7.06,4.8V48.6a1.32,1.32,0,0,1-1.32,1.32H10.23A1.32,1.32,0,0,1,8.91,48.6V15.93a1.32,1.32,0,0,1,1.32-1.32h3.83v3.21a3.2,3.2,0,0,0,3.2,3.2h.88a3.21,3.21,0,0,0,3.2-3.2V14.61H38.66v3.21a3.21,3.21,0,0,0,3.2,3.2h.88a3.2,3.2,0,0,0,3.2-3.2V14.61h3.83A1.32,1.32,0,0,1,51.09,15.93Zm-2.64,7.79H11.59V45.88a1.32,1.32,0,0,0,1.32,1.32H47.14a1.32,1.32,0,0,0,1.31-1.32Z"/><path class="cls-2" d="M32.15,43H29a.45.45,0,0,1-.45-.44V31.05a.26.26,0,0,0-.4-.26l-1.84.84a.34.34,0,0,1-.49-.25L25.53,30a.59.59,0,0,1,.32-.61l2.88-1.28a2.67,2.67,0,0,1,.84-.17h2.58a.44.44,0,0,1,.44.44V42.53A.44.44,0,0,1,32.15,43Z"/></svg>