<svg id="Layer_1" data-name="Layer 1" xmlns="http://www.w3.org/2000/svg" viewBox="0 0 60 60"><defs><style>.cls-1{fill:none;}.cls-2{fill:white;}</style></defs><path class="cls-1" d="M13.82,45.09a1,1,0,0,1-.38-.08,1,1,0,0,0,.38.08H46.18a1,1,0,0,0,.38-.08,1,1,0,0,1-.38.08Z"/><path d="M39.39,21A9.25,9.25,0,0,1,40,22.85,9.25,9.25,0,0,0,39.39,21Z"/><path d="M20,22.85a10,10,0,0,1,.6-1.87A10,10,0,0,0,20,22.85Z"/><path d="M24.31,16.61a10,10,0,0,0-3.26,3.51A10,10,0,0,1,24.31,16.61Z"/><path class="cls-2" d="M47.07,44.5a.91.91,0,0,0,.08-.37h0A.91.91,0,0,1,47.07,44.5Zm-34.22-.37a.91.91,0,0,0,.08.37.91.91,0,0,1-.08-.37Zm31.66-6.52a9.8,9.8,0,0,0-1.34-1.15,9.34,9.34,0,0,0-5.09-1.7l-3-.1-2.86-.11a10,10,0,0,0,7.95-9.7,9.5,9.5,0,0,0-.21-2A9.25,9.25,0,0,0,39.39,21c-.13-.29-.27-.58-.43-.86a10.15,10.15,0,0,0-3.26-3.51,10.39,10.39,0,0,0-11.39,0,10,10,0,0,0-3.26,3.51c-.16.28-.3.57-.43.86a10,10,0,0,0-.6,1.87,10.2,10.2,0,0,0-.2,2,10,10,0,0,0,8,9.71c-1.88.08-3.93.16-5.89.22a9.35,9.35,0,0,0-9,9.35.91.91,0,0,0,.08.37,1,1,0,0,0,.51.51,1,1,0,0,0,.38.08H46.18a1,1,0,0,0,.38-.08,1,1,0,0,0,.51-.51.91.91,0,0,0,.08-.37,9.36,9.36,0,0,0-2.64-6.52Zm0,0a9.8,9.8,0,0,0-1.34-1.15,9.34,9.34,0,0,0-5.09-1.7l-3-.1-2.86-.11a10,10,0,0,0,7.95-9.7,9.5,9.5,0,0,0-.21-2A9.25,9.25,0,0,0,39.39,21c-.13-.29-.27-.58-.43-.86a10.15,10.15,0,0,0-3.26-3.51,10.39,10.39,0,0,0-11.39,0,10,10,0,0,0-3.26,3.51c-.16.28-.3.57-.43.86a10,10,0,0,0-.6,1.87,10.2,10.2,0,0,0-.2,2,10,10,0,0,0,8,9.71c-1.88.08-3.93.16-5.89.22a9.35,9.35,0,0,0-9,9.35h0a.91.91,0,0,0,.08.37,1,1,0,0,0,.51.51,1,1,0,0,0,.38.08H46.18a1,1,0,0,0,.38-.08,1,1,0,0,0,.51-.51.91.91,0,0,0,.08-.37h0a9.36,9.36,0,0,0-2.64-6.52Zm7.82-3.26-4.48-.16a7.6,7.6,0,0,0-1.71-15,7.88,7.88,0,0,0-3.87,1,12.5,12.5,0,0,1,.92,4.7,12.69,12.69,0,0,1-2.32,7.29A12.31,12.31,0,0,1,50,42.26h8.54a.74.74,0,0,0,.73-.74h0A7.17,7.17,0,0,0,52.33,34.35Zm-7.82,3.26a9.8,9.8,0,0,0-1.34-1.15,9.34,9.34,0,0,0-5.09-1.7l-3-.1-2.86-.11a10,10,0,0,0,7.95-9.7,9.5,9.5,0,0,0-.21-2A9.25,9.25,0,0,0,39.39,21c-.13-.29-.27-.58-.43-.86a10.15,10.15,0,0,0-3.26-3.51,10.39,10.39,0,0,0-11.39,0,10,10,0,0,0-3.26,3.51c-.16.28-.3.57-.43.86a10,10,0,0,0-.6,1.87,10.2,10.2,0,0,0-.2,2,10,10,0,0,0,8,9.71c-1.88.08-3.93.16-5.89.22a9.35,9.35,0,0,0-9,9.35h0a.91.91,0,0,0,.08.37,1,1,0,0,0,.51.51,1,1,0,0,0,.38.08H46.18a1,1,0,0,0,.38-.08,1,1,0,0,0,.51-.51.91.91,0,0,0,.08-.37h0a9.36,9.36,0,0,0-2.64-6.52ZM19.14,32.16a12.64,12.64,0,0,1-1.41-12,7.84,7.84,0,0,0-3.86-1,7.6,7.6,0,0,0-1.7,15c-1.44.07-3,.13-4.51.17A7.17,7.17,0,0,0,.73,41.52h0a.74.74,0,0,0,.73.74H10A12.25,12.25,0,0,1,19.14,32.16Zm24,4.3a9.8,9.8,0,0,1,1.34,1.15A9.8,9.8,0,0,0,43.17,36.46ZM12.85,44.13h0a9.36,9.36,0,0,1,5.51-8.53A9.36,9.36,0,0,0,12.85,44.13Zm27.94-8.88a9.29,9.29,0,0,0-2.71-.49l-3-.1,3,.1A9.29,9.29,0,0,1,40.79,35.25Zm5.65,5.3a9.48,9.48,0,0,1,.71,3.58h0A9.48,9.48,0,0,0,46.44,40.55Z"/><path d="M39,20.12a10.15,10.15,0,0,0-3.26-3.51A10.15,10.15,0,0,1,39,20.12Z"/></svg>