<svg id="Layer_1" data-name="Layer 1" xmlns="http://www.w3.org/2000/svg" viewBox="0 0 60 60"><defs><style>.cls-1,.cls-2{fill:#012b45;}.cls-2{fill-rule:evenodd;}</style></defs><rect class="cls-1" x="16.81" y="15.86" width="19.7" height="2"/><polygon class="cls-1" points="17.02 31.01 31.14 31.01 33.16 29.01 17.02 29.01 17.02 31.01"/><polygon class="cls-1" points="17.02 37.59 24.54 37.59 26.55 35.59 17.02 35.59 17.02 37.59"/><rect class="cls-1" x="17.02" y="42.16" width="6.64" height="2"/><path class="cls-1" d="M42.12,34.73V48.14H11.61V11.86H42.12v8.23l2.93-2.91V10.42A1.43,1.43,0,0,0,43.63,9H10.1a1.43,1.43,0,0,0-1.42,1.42V49.58A1.43,1.43,0,0,0,10.1,51H43.63a1.43,1.43,0,0,0,1.42-1.42V31.82Z"/><rect class="cls-1" x="16.81" y="22.44" width="19.7" height="2"/><polygon class="cls-2" points="47.87 25.26 44.42 21.82 47.87 18.39 51.32 21.82 47.87 25.26"/><polygon class="cls-2" points="32.34 40.72 28.88 37.29 42.69 23.54 46.14 26.98 32.34 40.72"/><polygon class="cls-2" points="28.88 44.16 25.43 44.16 25.43 40.72 27.16 39.01 30.61 42.44 28.88 44.16"/></svg>