<svg id="Layer_1" data-name="Layer 1" xmlns="http://www.w3.org/2000/svg" viewBox="0 0 60 60"><defs><style>.cls-1{fill:#012b45;fill-rule:evenodd;}</style></defs><path class="cls-1" d="M51.31,12.59a95.72,95.72,0,0,0-8.22,9.33l.07,26.35a1.41,1.41,0,0,1-1.4,1.41H9.4A1.4,1.4,0,0,1,8,48.28V17.8a1.4,1.4,0,0,1,1.4-1.4l29.58,0a4.22,4.22,0,0,1,1.6.31c1.23-1.36,2.48-2.69,3.78-4a9.38,9.38,0,0,1,6-2.35C52.14,10.3,52.5,11.4,51.31,12.59Zm-39.93,7v26.9H39.71V26.63a92.54,92.54,0,0,0-7.34,12.85,3.55,3.55,0,0,1-.52.82l0,0,0,.06a2.09,2.09,0,0,1-.2.22v0l-.21.18-.19.17h0a6.94,6.94,0,0,1-1.15.76c-2.3,1.26-5.63,2-6.29.56a48.43,48.43,0,0,0-9.52-13.65c-1.22-1.22,1.11-2.61,2.09-3.12a10.68,10.68,0,0,1,3.32-1.12c.53-.08,1.88-.27,2.35.2a52.87,52.87,0,0,1,6.71,8.19,103.25,103.25,0,0,1,9.4-13.25Z"/></svg>