<svg id="Layer_1" data-name="Layer 1" xmlns="http://www.w3.org/2000/svg" viewBox="0 0 60 60"><defs><style>.cls-1{fill:#012b45;}</style></defs><path class="cls-1" d="M46.35,23.59S31.47,10,31,9.55a1.41,1.41,0,0,0-1.9,0L13.64,23.69a1.4,1.4,0,0,0-.09,2l2.5,2.71a1.41,1.41,0,0,0,2,.08l8.7-8V39.27a1.4,1.4,0,0,0,1.4,1.4h3.74a1.4,1.4,0,0,0,1.4-1.4V20.49L42,28.39a1.38,1.38,0,0,0,2-.1l2.47-2.73A1.38,1.38,0,0,0,46.35,23.59Z"/><rect class="cls-1" x="26.73" y="30.75" width="6.54" height="33.63" rx="1.25" transform="translate(77.57 17.57) rotate(90)"/></svg>