<svg id="Layer_1" data-name="Layer 1" xmlns="http://www.w3.org/2000/svg" viewBox="0 0 60 60"><defs><style>.cls-1{fill:#012b45;}</style></defs><path class="cls-1" d="M50.47,22.51c-.24-.67-.52-1.32-.82-2-.16-.32-.32-.63-.49-.94a20.5,20.5,0,0,0-1.09-1.8c-.39-.57-.81-1.13-1.25-1.67s-.92-1.06-1.41-1.55-1-1-1.55-1.41c-.27-.22-.54-.44-.82-.64-.56-.42-1.14-.81-1.74-1.18-.3-.18-.6-.36-.91-.52A21.69,21.69,0,0,0,30,8.21a20.68,20.68,0,0,0-2.23.11,19.4,19.4,0,0,0-2.16.33,18.3,18.3,0,0,0-2.09.54,21.06,21.06,0,0,0-3,1.17,20.53,20.53,0,0,0-2.73,1.57,21.76,21.76,0,0,0-5.28,5c-.42.56-.81,1.14-1.18,1.74a22,22,0,0,0-1.44,2.82,21.88,21.88,0,0,0,0,17,22,22,0,0,0,1.44,2.82c.37.6.76,1.18,1.18,1.74a21.76,21.76,0,0,0,5.28,5,20.53,20.53,0,0,0,2.73,1.57,21.06,21.06,0,0,0,3,1.17,18.3,18.3,0,0,0,2.09.54,19.4,19.4,0,0,0,2.16.33,20.68,20.68,0,0,0,2.23.11,21.69,21.69,0,0,0,10.39-2.63c.31-.16.61-.34.91-.52.6-.37,1.18-.76,1.74-1.18.28-.2.55-.42.82-.64.54-.45,1.06-.92,1.55-1.41s1-1,1.41-1.55.86-1.1,1.25-1.67a20.5,20.5,0,0,0,1.09-1.8c.17-.31.33-.62.49-.94.3-.64.58-1.29.82-2a21.91,21.91,0,0,0,0-15ZM44.15,42.33c0-1.91,0-2.34,0-2.43a7.72,7.72,0,0,0-7.48-7.72L31.85,32A8.23,8.23,0,1,0,21.6,24a8.24,8.24,0,0,0,6.58,8l-4.86.19a7.7,7.7,0,0,0-7.46,7.7v2.44a18.79,18.79,0,1,1,28.29,0Z"/></svg>