<svg id="Layer_1" data-name="Layer 1" xmlns="http://www.w3.org/2000/svg" viewBox="0 0 60 60"><defs><style>.cls-1{fill:#012b45;}</style></defs><path class="cls-1" d="M49.88,35.09,46.33,33a16.08,16.08,0,0,0,0-6.08l3.55-2.05a1.26,1.26,0,0,0,.46-1.71l-4-7a1.26,1.26,0,0,0-1.71-.46L41,17.8a16.24,16.24,0,0,0-5.26-3V10.65A1.25,1.25,0,0,0,34.52,9.4H26.44a1.25,1.25,0,0,0-1.25,1.25v4.11a16.19,16.19,0,0,0-5.25,3l-3.57-2.06a1.25,1.25,0,0,0-1.7.46l-4,7a1.25,1.25,0,0,0,.45,1.71L14.64,27a15.55,15.55,0,0,0,0,6.08l-3.56,2.05a1.25,1.25,0,0,0-.45,1.71l4,7a1.24,1.24,0,0,0,1.7.46l3.57-2.06a16,16,0,0,0,5.25,3v4.11a1.25,1.25,0,0,0,1.25,1.25h8.08a1.25,1.25,0,0,0,1.25-1.25V45.23a16.06,16.06,0,0,0,5.26-3l3.56,2.06a1.25,1.25,0,0,0,1.71-.46l4-7A1.25,1.25,0,0,0,49.88,35.09Zm-19.4,1.55A6.65,6.65,0,1,1,37.12,30,6.64,6.64,0,0,1,30.48,36.64Z"/></svg>