<svg id="Layer_1" data-name="Layer 1" xmlns="http://www.w3.org/2000/svg" viewBox="0 0 60 60"><defs><style>.cls-1{fill:#012b45;fill-rule:evenodd;}</style></defs><path class="cls-1" d="M11.65,53.54V14.12a1.47,1.47,0,0,1,1.46-1.47h3.83v-1a1.12,1.12,0,0,1,1.22-1h1.23a5,5,0,0,0,3.15-1.25C24.53,7.76,24.9,5,28.13,5h3.74c3.23,0,3.6,2.76,5.59,4.45a5,5,0,0,0,3.15,1.25h1.22a1.13,1.13,0,0,1,1.23,1v1h3.83a1.47,1.47,0,0,1,1.46,1.47V53.54A1.47,1.47,0,0,1,46.89,55H13.11A1.47,1.47,0,0,1,11.65,53.54ZM30,6.76a1.79,1.79,0,1,0,1.81,1.78A1.8,1.8,0,0,0,30,6.76ZM45.46,15.6H43l0,.73a1.24,1.24,0,0,1-1.35,1.06H18.29a1.23,1.23,0,0,1-1.35-1.06,7,7,0,0,0,0-.73H14.59l0,36.41H45.48ZM20.15,20.73h19.7v2H20.15Zm0,6.13h19.7v2H20.15Zm0,6.12h19.7v2H20.15Zm0,6.12h19.7v2H20.15Zm0,6.12h19.7v2H20.15Z"/></svg>