<svg id="Layer_1" data-name="Layer 1" xmlns="http://www.w3.org/2000/svg" viewBox="0 0 60 60"><defs><style>.cls-1{fill:#012b45;fill-rule:evenodd;}</style></defs><path class="cls-1" d="M52.7,18.28h-13a0,0,0,0,1,0,0V12.63a1.24,1.24,0,0,0-1.24-1.24H21.53a1.24,1.24,0,0,0-1.24,1.24v5.62a0,0,0,0,1,0,0H7.3A1.27,1.27,0,0,0,6,19.55V47.34A1.27,1.27,0,0,0,7.3,48.61H52.7A1.27,1.27,0,0,0,54,47.34V19.55A1.27,1.27,0,0,0,52.7,18.28ZM37.32,13.82v4.43s-14.64,0-14.64,0V13.82S37.32,13.8,37.32,13.82ZM9.93,20.92H50.07a1.27,1.27,0,0,1,1.27,1.27v9.57l-16.08,0a0,0,0,0,1,0,0V29.18A1.24,1.24,0,0,0,34,27.94H26a1.24,1.24,0,0,0-1.24,1.24v2.58a0,0,0,0,1,0,0h-16s0-9.6,0-9.6A1.27,1.27,0,0,1,9.93,20.92Zm22.91,9.45V36s-5.65,0-5.65,0,0-5.65,0-5.65S32.84,30.35,32.84,30.37ZM50.1,46H9.9a1.24,1.24,0,0,1-1.24-1.23V34.21s16.08,0,16.08,0,0,.94,0,1v2A1.23,1.23,0,0,0,26,38.41h8a1.23,1.23,0,0,0,1.24-1.23v-3s16.08,0,16.08,0,0,10.56,0,10.56A1.24,1.24,0,0,1,50.1,46Z"/></svg>